<svg width="18" height="18" viewBox="0 0 18 18" fill="none" xmlns="http://www.w3.org/2000/svg">
<path fill-rule="evenodd" clip-rule="evenodd" d="M1.63636 3.27773L1.63651 3.27242C1.64633 2.97793 1.72548 2.674 1.85681 2.41135C1.96168 2.2016 2.10616 2.01673 2.30754 1.88247C2.50381 1.75163 2.80226 1.63636 3.27273 1.63636C3.7432 1.63636 4.04165 1.75163 4.23791 1.88247C4.49072 2.05101 4.65725 2.30793 4.75999 2.57299C4.27223 2.70105 3.86694 2.92671 3.53909 3.21939C3.03078 3.67316 2.76734 4.23497 2.62892 4.68133C2.47139 5.18934 2.6121 5.6844 2.91898 6.0303C3.2135 6.36227 3.6447 6.54545 4.09091 6.54545H7.36364C7.80987 6.54545 8.24105 6.36227 8.5356 6.0303C8.84242 5.6844 8.98314 5.18934 8.82564 4.68133C8.68721 4.23497 8.42375 3.67316 7.9155 3.21939C7.53415 2.87899 7.04807 2.62923 6.44933 2.51827C6.39287 2.27097 6.30149 1.97801 6.15226 1.67956C5.95032 1.27568 5.63456 0.846908 5.14561 0.520936C4.65154 0.191553 4.02954 0 3.27273 0C2.51593 0 1.89393 0.191553 1.39984 0.520936C0.91089 0.846908 0.595137 1.27568 0.393194 1.67956C0.192862 2.08023 0.0967664 2.471 0.0494836 2.7547C0.0212318 2.92421 0.0010391 3.09695 8.19293e-06 3.26906L0 9.81818C9e-05 9.89231 0.00167731 9.96554 0.00706913 10.0977C0.0139746 10.2667 0.0276546 10.5054 0.0548182 10.7907C0.108794 11.3573 0.217669 12.1264 0.440575 12.9066C0.660755 13.6772 1.00912 14.5198 1.57765 15.183C2.16698 15.8706 2.99617 16.3636 4.09091 16.3636V17.1818C4.09091 17.6337 4.45723 18 4.90909 18C5.36096 18 5.72727 17.6337 5.72727 17.1818V16.3636H12.2727V17.1818C12.2727 17.6337 12.639 18 13.0909 18C13.5428 18 13.9091 17.6337 13.9091 17.1818V16.3636C15.6174 16.3636 16.6096 15.1904 17.1492 14.0262C17.6867 12.8665 17.8801 11.5259 17.953 10.7053C18.0393 9.73505 17.2532 9 16.3636 9H1.63636V3.27773ZM1.6839 10.6364C1.73222 11.1434 1.82788 11.8057 2.01397 12.4571C2.20288 13.1182 2.46815 13.7075 2.82008 14.1181C3.1512 14.5044 3.54928 14.7273 4.09091 14.7273H13.9091C14.6968 14.7273 15.2489 14.2348 15.6646 13.338C16.0686 12.4663 16.2439 11.394 16.3161 10.6364H1.6839ZM6.82571 4.4401C6.97194 4.57063 7.0822 4.73371 7.1641 4.90909H4.29045C4.37235 4.73371 4.48261 4.57063 4.62883 4.4401C4.82862 4.26175 5.15353 4.09091 5.72727 4.09091C6.30101 4.09091 6.62593 4.26175 6.82571 4.4401Z" fill="#B0B0B0"/>
</svg>
