<svg width="22" height="18" viewBox="0 0 22 18" fill="none" xmlns="http://www.w3.org/2000/svg">
<path d="M1 1.17969V16.0663M1 12.8763H20.1399M20.1399 16.0663V9.89899C20.1399 8.70795 20.1399 8.11238 19.9081 7.65749C19.7043 7.25736 19.3789 6.93198 18.9788 6.72814C18.5239 6.49633 17.9283 6.49633 16.7373 6.49633H9.50663V12.5863M5.25332 8.62299H5.26395M6.31665 8.62299C6.31665 9.21027 5.84057 9.68632 5.25332 9.68632C4.66606 9.68632 4.18999 9.21027 4.18999 8.62299C4.18999 8.03571 4.66606 7.55966 5.25332 7.55966C5.84057 7.55966 6.31665 8.03571 6.31665 8.62299Z" stroke="#B0B0B0" stroke-width="2" stroke-linecap="round" stroke-linejoin="round"/>
</svg>
