<svg width="17" height="23" viewBox="0 0 17 23" fill="none" xmlns="http://www.w3.org/2000/svg">
<path d="M5.96055 18.1131C5.34655 18.1131 3.4336 18.1131 2.01632 18.1131C1.26118 18.1131 0.770961 17.3185 1.10867 16.6431L1.97627 14.9079C2.25837 14.3437 2.40523 13.7222 2.40523 13.0914C2.40523 12.3095 2.40523 11.1482 2.40523 9.98668C2.40523 7.95507 3.42104 3.89185 8.50007 3.89185C13.5791 3.89185 14.5949 7.95507 14.5949 9.98668C14.5949 11.1482 14.5949 12.3095 14.5949 13.0914C14.5949 13.7222 14.7418 14.3437 15.0239 14.9079L15.8915 16.6431C16.2291 17.3185 15.738 18.1131 14.9829 18.1131H11.0396M5.96055 18.1131C5.96055 20.1447 6.97636 21.1605 8.50007 21.1605C10.0238 21.1605 11.0396 20.1447 11.0396 18.1131M5.96055 18.1131C7.54734 18.1131 11.0396 18.1131 11.0396 18.1131" stroke="#4A4A4A" stroke-width="2" stroke-linejoin="round"/>
<path d="M8.5 3.89172V1.86011" stroke="#4A4A4A" stroke-width="2" stroke-linecap="round" stroke-linejoin="round"/>
</svg>
