<svg width="18" height="20" viewBox="0 0 18 20" fill="none" xmlns="http://www.w3.org/2000/svg">
<path d="M17.6316 14.5881C17.101 13.675 16.3126 11.0997 16.3126 7.75C16.3126 5.8106 15.5422 3.95064 14.1708 2.57928C12.7994 1.20792 10.9395 0.4375 9.00008 0.4375C7.06069 0.4375 5.20073 1.20792 3.82937 2.57928C2.45801 3.95064 1.68758 5.8106 1.68758 7.75C1.68758 11.1006 0.898209 13.675 0.367584 14.5881C0.251161 14.7875 0.189384 15.014 0.188486 15.2449C0.187589 15.4758 0.247603 15.7028 0.362474 15.903C0.477344 16.1033 0.643005 16.2697 0.84274 16.3855C1.04247 16.5013 1.26922 16.5623 1.50008 16.5625H5.48258C5.61921 17.3964 6.04778 18.1545 6.69177 18.7016C7.33575 19.2486 8.15323 19.549 8.99821 19.549C9.84319 19.549 10.6607 19.2486 11.3047 18.7016C11.9486 18.1545 12.3772 17.3964 12.5138 16.5625H16.5001C16.7308 16.562 16.9573 16.5007 17.1568 16.3848C17.3562 16.2689 17.5216 16.1024 17.6363 15.9022C17.7509 15.702 17.8108 15.4751 17.8098 15.2444C17.8088 15.0137 17.7471 14.7874 17.6307 14.5881H17.6316ZM9.00008 18.4375C8.45156 18.4373 7.91913 18.2521 7.48888 17.9119C7.05863 17.5716 6.75573 17.0962 6.62915 16.5625H11.371C11.2444 17.0962 10.9415 17.5716 10.5113 17.9119C10.081 18.2521 9.54861 18.4373 9.00008 18.4375ZM16.6604 15.3438C16.645 15.3725 16.6219 15.3964 16.5938 15.4129C16.5657 15.4295 16.5336 15.438 16.501 15.4375H1.50008C1.46748 15.438 1.43538 15.4295 1.40728 15.4129C1.37918 15.3964 1.35615 15.3725 1.34071 15.3438C1.32425 15.3152 1.31559 15.2829 1.31559 15.25C1.31559 15.2171 1.32425 15.1848 1.34071 15.1562C2.0504 13.9375 2.81258 11.0959 2.81258 7.75C2.81258 6.10897 3.46448 4.53516 4.62486 3.37478C5.78524 2.2144 7.35906 1.5625 9.00008 1.5625C10.6411 1.5625 12.2149 2.2144 13.3753 3.37478C14.5357 4.53516 15.1876 6.10897 15.1876 7.75C15.1876 11.095 15.9507 13.9328 16.6604 15.1562C16.6769 15.1848 16.6855 15.2171 16.6855 15.25C16.6855 15.2829 16.6769 15.3152 16.6604 15.3438Z" fill="black"/>
</svg>
