<svg width="19" height="16" viewBox="0 0 19 16" fill="none" xmlns="http://www.w3.org/2000/svg">
<path d="M1 4.22235L3.50595 6.31061C3.6714 6.44853 3.87996 6.52402 4.09534 6.52402H14.4767C14.6921 6.52402 14.9007 6.44853 15.0661 6.31061L17.5721 4.22235M4.22235 9.74637H4.23155M14.3497 9.74637H14.3589M5.75126 1H12.8209C13.4816 1 14.0918 1.35406 14.4195 1.92778L17.0869 6.59556C17.4048 7.15201 17.5721 7.78175 17.5721 8.42272V13.8894C17.5721 14.3979 17.1599 14.8101 16.6514 14.8101H15.7307C15.2222 14.8101 14.8101 14.3979 14.8101 13.8894V12.9687H3.76201V13.8894C3.76201 14.3979 3.34981 14.8101 2.84134 14.8101H1.92067C1.4122 14.8101 1 14.3979 1 13.8894V8.42272C1 7.78175 1.16725 7.15201 1.48522 6.59556L4.15252 1.92778C4.48036 1.35406 5.09048 1 5.75126 1ZM4.68268 9.74637C4.68268 10.0006 4.47658 10.2067 4.22235 10.2067C3.96811 10.2067 3.76201 10.0006 3.76201 9.74637C3.76201 9.49217 3.96811 9.28604 4.22235 9.28604C4.47658 9.28604 4.68268 9.49217 4.68268 9.74637ZM14.8101 9.74637C14.8101 10.0006 14.6039 10.2067 14.3497 10.2067C14.0955 10.2067 13.8894 10.0006 13.8894 9.74637C13.8894 9.49217 14.0955 9.28604 14.3497 9.28604C14.6039 9.28604 14.8101 9.49217 14.8101 9.74637Z" stroke="#B0B0B0" stroke-width="2" stroke-linecap="round" stroke-linejoin="round"/>
</svg>
