<svg width="21" height="20" viewBox="0 0 21 20" fill="none" xmlns="http://www.w3.org/2000/svg">
<path d="M10.2282 20C4.71431 20 0.228516 15.5142 0.228516 10C0.228516 4.4858 4.71431 0 10.2282 0C15.742 0 20.2282 4.4858 20.2282 10C20.2282 15.5142 15.7424 20 10.2282 20ZM10.2282 1.39882C5.48544 1.39882 1.62698 5.25728 1.62698 10C1.62698 14.7427 5.48544 18.6012 10.2282 18.6012C14.9709 18.6012 18.8294 14.7427 18.8294 10C18.8294 5.25728 14.9709 1.39882 10.2282 1.39882Z" fill="#8CC63F"/>
<path d="M10.227 15.228C8.86381 15.228 7.50024 14.7092 6.46267 13.6713C6.18953 13.3982 6.18953 12.9555 6.46267 12.6824C6.7358 12.4093 7.17846 12.4093 7.4516 12.6824C8.98188 14.2127 11.4722 14.213 13.0028 12.6824C13.2759 12.4093 13.7186 12.4093 13.9917 12.6824C14.2649 12.9555 14.2649 13.3982 13.9917 13.6713C12.9542 14.7092 11.5906 15.228 10.227 15.228Z" fill="#8CC63F"/>
<path d="M6.91191 9.49204C7.71326 9.49204 8.36289 8.84242 8.36289 8.04106C8.36289 7.23971 7.71326 6.59009 6.91191 6.59009C6.11056 6.59009 5.46094 7.23971 5.46094 8.04106C5.46094 8.84242 6.11056 9.49204 6.91191 9.49204Z" fill="#8CC63F"/>
<path d="M13.5447 9.49204C14.3461 9.49204 14.9957 8.84242 14.9957 8.04106C14.9957 7.23971 14.3461 6.59009 13.5447 6.59009C12.7434 6.59009 12.0938 7.23971 12.0938 8.04106C12.0938 8.84242 12.7434 9.49204 13.5447 9.49204Z" fill="#8CC63F"/>
</svg>
