<svg width="20" height="20" viewBox="0 0 20 20" fill="none" xmlns="http://www.w3.org/2000/svg">
<path d="M10 20C4.4858 20 0 15.5142 0 10C0 4.4858 4.48615 0 10 0C15.5139 0 20 4.4858 20 10C20 15.5142 15.5142 20 10 20ZM10 1.39882C5.25728 1.39882 1.39882 5.25728 1.39882 10C1.39882 14.7427 5.25728 18.6012 10 18.6012C14.7427 18.6012 18.6012 14.7427 18.6012 10C18.6012 5.25728 14.7424 1.39882 10 1.39882Z" fill="#E2741A"/>
<path d="M13.2707 15.2306C13.0917 15.2306 12.913 15.1622 12.7762 15.0258C11.2453 13.4952 8.75496 13.4955 7.22504 15.0258C6.9519 15.2989 6.50924 15.2989 6.2361 15.0258C5.96297 14.7527 5.96297 14.31 6.2361 14.0369C8.31159 11.9607 11.6897 11.9614 13.7652 14.0369C14.0383 14.31 14.0383 14.7527 13.7652 15.0258C13.6284 15.1622 13.4498 15.2306 13.2707 15.2306Z" fill="#E2741A"/>
<path d="M6.6834 9.49216C7.48475 9.49216 8.13438 8.84254 8.13438 8.04119C8.13438 7.23983 7.48475 6.59021 6.6834 6.59021C5.88205 6.59021 5.23242 7.23983 5.23242 8.04119C5.23242 8.84254 5.88205 9.49216 6.6834 9.49216Z" fill="#E2741A"/>
<path d="M13.3162 9.49216C14.1176 9.49216 14.7672 8.84254 14.7672 8.04119C14.7672 7.23983 14.1176 6.59021 13.3162 6.59021C12.5149 6.59021 11.8652 7.23983 11.8652 8.04119C11.8652 8.84254 12.5149 9.49216 13.3162 9.49216Z" fill="#E2741A"/>
</svg>
