<svg width="20" height="20" viewBox="0 0 20 20" fill="none" xmlns="http://www.w3.org/2000/svg">
<path d="M10 20C4.4858 20 0 15.5142 0 10C0 4.4858 4.4858 0 10 0C15.5142 0 20 4.4858 20 10C20 15.5142 15.5142 20 10 20ZM10 1.39882C5.25728 1.39882 1.39882 5.25728 1.39882 10C1.39882 14.7427 5.25763 18.6012 10 18.6012C14.7424 18.6012 18.6012 14.7427 18.6012 10C18.6012 5.25728 14.7424 1.39882 10 1.39882Z" fill="#E5C217"/>
<path d="M13.2738 14.553H6.72657C6.34031 14.553 6.02734 14.24 6.02734 13.8538C6.02734 13.4675 6.34031 13.1545 6.72657 13.1545H13.2738C13.66 13.1545 13.973 13.4675 13.973 13.8538C13.973 14.24 13.66 14.553 13.2738 14.553Z" fill="#E5C217"/>
<path d="M6.6834 9.49228C7.48475 9.49228 8.13438 8.84266 8.13438 8.04131C8.13438 7.23996 7.48475 6.59033 6.6834 6.59033C5.88205 6.59033 5.23242 7.23996 5.23242 8.04131C5.23242 8.84266 5.88205 9.49228 6.6834 9.49228Z" fill="#E5C217"/>
<path d="M13.3162 9.49228C14.1176 9.49228 14.7672 8.84266 14.7672 8.04131C14.7672 7.23996 14.1176 6.59033 13.3162 6.59033C12.5149 6.59033 11.8652 7.23996 11.8652 8.04131C11.8652 8.84266 12.5149 9.49228 13.3162 9.49228Z" fill="#E5C217"/>
</svg>
