<svg width="20" height="20" viewBox="0 0 20 20" fill="none" xmlns="http://www.w3.org/2000/svg">
<path d="M10 20C4.4858 20 0 15.5142 0 10C0 4.4858 4.48615 0 10 0C15.5139 0 20 4.4858 20 10C20 15.5142 15.5142 20 10 20ZM10 1.39882C5.25728 1.39882 1.39882 5.25728 1.39882 10C1.39882 14.7427 5.25728 18.6012 10 18.6012C14.7427 18.6012 18.6012 14.7427 18.6012 10C18.6012 5.25728 14.7427 1.39882 10 1.39882Z" fill="#E01B1B"/>
<path d="M10.0009 11.9152C8.07763 11.9152 6.15439 13.16 6.03914 15.6496C6.03562 15.7546 6.14734 15.8244 6.24179 15.7789C7.43056 15.2125 8.7173 14.9292 10.0009 14.9292C11.2844 14.9292 12.5708 15.2122 13.7599 15.7789C13.8544 15.8244 13.9661 15.7546 13.9626 15.6496C13.8473 13.16 11.9241 11.9152 10.0009 11.9152Z" fill="#E01B1B"/>
<path d="M6.68145 9.99998C7.4828 9.99998 8.13242 9.35035 8.13242 8.549C8.13242 7.74765 7.4828 7.09802 6.68145 7.09802C5.88009 7.09802 5.23047 7.74765 5.23047 8.549C5.23047 9.35035 5.88009 9.99998 6.68145 9.99998Z" fill="#E01B1B"/>
<path d="M8.11187 7.11069C8.08156 7.11069 8.05125 7.10823 8.01988 7.10259L5.16198 6.5986C4.87686 6.54821 4.6862 6.27613 4.73659 5.99101C4.78699 5.70553 5.05942 5.51557 5.34454 5.56562L8.20244 6.0696C8.48756 6.12 8.67823 6.39208 8.62783 6.6772C8.58272 6.93166 8.36139 7.11069 8.11187 7.11069Z" fill="#E01B1B"/>
<path d="M13.3162 9.99998C14.1176 9.99998 14.7672 9.35035 14.7672 8.549C14.7672 7.74765 14.1176 7.09802 13.3162 7.09802C12.5149 7.09802 11.8652 7.74765 11.8652 8.549C11.8652 9.35035 12.5149 9.99998 13.3162 9.99998Z" fill="#E01B1B"/>
<path d="M11.8872 7.11069C11.6377 7.11069 11.4164 6.93166 11.3713 6.6772C11.3212 6.39208 11.5115 6.12 11.7967 6.0696L14.6549 5.56562C14.9428 5.51557 15.2121 5.70553 15.2629 5.99101C15.3129 6.27613 15.1226 6.54821 14.8375 6.5986L11.9792 7.10259C11.9482 7.10787 11.9179 7.11069 11.8872 7.11069Z" fill="#E01B1B"/>
</svg>
