<svg width="20" height="20" viewBox="0 0 20 20" fill="none" xmlns="http://www.w3.org/2000/svg">
<path d="M9.99965 20C4.4858 20 0 15.5142 0 10C0 4.4858 4.4858 0 9.99965 0C15.5135 0 19.9996 4.4858 19.9996 10C19.9996 15.5142 15.5139 20 9.99965 20ZM9.99965 1.39882C5.25693 1.39882 1.39882 5.25728 1.39882 10C1.39882 14.7427 5.25728 18.6012 9.99965 18.6012C14.742 18.6012 18.6008 14.7427 18.6008 10C18.6008 5.25728 14.742 1.39882 9.99965 1.39882Z" fill="#009245"/>
<path d="M9.99891 15.7929C11.9222 15.7929 13.8454 14.5481 13.9606 12.0585C13.9642 11.9535 13.8524 11.8837 13.758 11.9292C12.5692 12.4955 11.2825 12.7789 9.99891 12.7789C8.71534 12.7789 7.42896 12.4959 6.23984 11.9292C6.14539 11.8837 6.03367 11.9535 6.03719 12.0585C6.15244 14.5481 8.07567 15.7929 9.99891 15.7929Z" fill="#009245"/>
<path d="M14.7682 9.29084C14.4785 9.29084 14.2438 9.05612 14.2438 8.76642C14.2438 8.25574 13.8282 7.83986 13.3172 7.83986C12.8062 7.83986 12.3906 8.25538 12.3906 8.76642C12.3906 9.05612 12.1556 9.29084 11.8662 9.29084C11.5769 9.29084 11.3418 9.05612 11.3418 8.76642C11.3418 7.67704 12.2278 6.79102 13.3172 6.79102C14.4066 6.79102 15.2926 7.67704 15.2926 8.76642C15.2926 9.05612 15.0575 9.29084 14.7682 9.29084Z" fill="#009245"/>
<path d="M8.13341 9.29084C7.8437 9.29084 7.60899 9.05612 7.60899 8.76642C7.60899 8.25574 7.19346 7.83986 6.68243 7.83986C6.1714 7.83986 5.75588 8.25538 5.75588 8.76642C5.75588 9.05612 5.52081 9.29084 5.23146 9.29084C4.94211 9.29084 4.70703 9.05612 4.70703 8.76642C4.70703 7.67704 5.59306 6.79102 6.68243 6.79102C7.77181 6.79102 8.65783 7.67704 8.65783 8.76642C8.65783 9.05612 8.42276 9.29084 8.13341 9.29084Z" fill="#009245"/>
</svg>
