<svg width="24" height="24" viewBox="0 0 24 24" fill="none" xmlns="http://www.w3.org/2000/svg">
<g opacity="0.3">
<path d="M19.6472 10.5995C18.8036 9.8002 17.436 9.8002 16.5925 10.5995C15.749 11.3988 15.749 12.6946 16.5925 13.4939C17.436 14.2932 18.8036 14.2932 19.6472 13.4939C20.4907 12.6947 20.4907 11.3988 19.6472 10.5995Z" fill="#030229"/>
<path d="M13.1672 10.5995C12.3237 9.8002 10.9561 9.8002 10.1126 10.5995C9.2691 11.3988 9.2691 12.6946 10.1126 13.4939C10.9561 14.2932 12.3237 14.2932 13.1672 13.4939C14.0107 12.6947 14.0107 11.3988 13.1672 10.5995" fill="#030229"/>
<path d="M6.68725 10.5995C5.84374 9.8002 4.47613 9.8002 3.63262 10.5995C2.78911 11.3988 2.78911 12.6946 3.63262 13.4939C4.47613 14.2932 5.84374 14.2932 6.68725 13.4939C7.53076 12.6947 7.53076 11.3988 6.68725 10.5995" fill="#030229"/>
</g>
</svg>
