<svg width="38" height="38" viewBox="0 0 38 38" fill="none" xmlns="http://www.w3.org/2000/svg">
<path d="M17.2903 16.6837C17.2903 17.3518 17.8319 17.8934 18.5 17.8934C19.1681 17.8934 19.7097 17.3518 19.7097 16.6837H17.2903ZM19.7097 7.20966C19.7097 6.54159 19.1681 6 18.5 6C17.8319 6 17.2903 6.54159 17.2903 7.20966H19.7097ZM14.1627 11.5024C14.7707 11.2256 15.0391 10.5082 14.7623 9.90024C14.4854 9.29223 13.768 9.0238 13.16 9.30067L14.1627 11.5024ZM7.20982 20.3708L6 20.3645L6.00024 20.3848L7.20982 20.3708ZM18.5 31.4029L18.5139 30.1932C18.5047 30.1932 18.4953 30.1932 18.4861 30.1932L18.5 31.4029ZM29.7902 20.3708L31 20.3848L30.9998 20.3645L29.7902 20.3708ZM23.8399 9.30067C23.2319 9.0238 22.5146 9.29223 22.2377 9.90024C21.9609 10.5082 22.2293 11.2256 22.8374 11.5024L23.8399 9.30067ZM19.7097 16.6837V7.20966H17.2903V16.6837H19.7097ZM13.16 9.30067C8.82017 11.2769 6.02498 15.5959 6 20.3645L8.41947 20.3771C8.43952 16.5521 10.6815 13.0877 14.1627 11.5024L13.16 9.30067ZM6.00024 20.3848C6.07976 27.2168 11.682 32.6909 18.5139 32.6126L18.4861 30.1932C12.9901 30.2565 8.48337 25.8526 8.4194 20.3568L6.00024 20.3848ZM18.4861 32.6126C25.318 32.6909 30.9206 27.2168 31 20.3848L28.5807 20.3568C28.5166 25.8526 24.0099 30.2565 18.5139 30.1932L18.4861 32.6126ZM30.9998 20.3645C30.9748 15.5959 28.1799 11.2769 23.8399 9.30067L22.8374 11.5024C26.3184 13.0877 28.5605 16.5521 28.5805 20.3771L30.9998 20.3645Z" fill="black"/>
</svg>
