<svg width="124" height="52" viewBox="0 0 124 52" fill="none" xmlns="http://www.w3.org/2000/svg">
<path d="M84.4883 38.0566V40H77.3496V38.0566H84.4883ZM78.0332 25.7812V40H75.582V25.7812H78.0332ZM85.6992 34.834V34.6094C85.6992 33.8477 85.8099 33.1413 86.0312 32.4902C86.2526 31.8327 86.5716 31.263 86.9883 30.7812C87.4115 30.293 87.9258 29.9154 88.5312 29.6484C89.1432 29.375 89.8333 29.2383 90.6016 29.2383C91.3763 29.2383 92.0664 29.375 92.6719 29.6484C93.2839 29.9154 93.8014 30.293 94.2246 30.7812C94.6478 31.263 94.9701 31.8327 95.1914 32.4902C95.4128 33.1413 95.5234 33.8477 95.5234 34.6094V34.834C95.5234 35.5957 95.4128 36.3021 95.1914 36.9531C94.9701 37.6042 94.6478 38.1738 94.2246 38.6621C93.8014 39.1439 93.2871 39.5215 92.6816 39.7949C92.0762 40.0618 91.3893 40.1953 90.6211 40.1953C89.8464 40.1953 89.153 40.0618 88.541 39.7949C87.9355 39.5215 87.4212 39.1439 86.998 38.6621C86.5749 38.1738 86.2526 37.6042 86.0312 36.9531C85.8099 36.3021 85.6992 35.5957 85.6992 34.834ZM88.0527 34.6094V34.834C88.0527 35.3092 88.1016 35.7585 88.1992 36.1816C88.2969 36.6048 88.4499 36.9759 88.6582 37.2949C88.8665 37.6139 89.1335 37.8646 89.459 38.0469C89.7845 38.2292 90.1719 38.3203 90.6211 38.3203C91.0573 38.3203 91.4349 38.2292 91.7539 38.0469C92.0794 37.8646 92.3464 37.6139 92.5547 37.2949C92.763 36.9759 92.916 36.6048 93.0137 36.1816C93.1178 35.7585 93.1699 35.3092 93.1699 34.834V34.6094C93.1699 34.1406 93.1178 33.6979 93.0137 33.2812C92.916 32.8581 92.7598 32.4837 92.5449 32.1582C92.3366 31.8327 92.0697 31.5788 91.7441 31.3965C91.4251 31.2077 91.0443 31.1133 90.6016 31.1133C90.1589 31.1133 89.7747 31.2077 89.4492 31.3965C89.1302 31.5788 88.8665 31.8327 88.6582 32.1582C88.4499 32.4837 88.2969 32.8581 88.1992 33.2812C88.1016 33.6979 88.0527 34.1406 88.0527 34.6094ZM104.264 29.4336H106.402V39.707C106.402 40.6576 106.201 41.4648 105.797 42.1289C105.393 42.793 104.83 43.2975 104.107 43.6426C103.385 43.9941 102.548 44.1699 101.598 44.1699C101.194 44.1699 100.745 44.1113 100.25 43.9941C99.7617 43.877 99.2865 43.6882 98.8242 43.4277C98.3685 43.1738 97.9876 42.8385 97.6816 42.4219L98.7852 41.0352C99.1628 41.4844 99.5794 41.8132 100.035 42.0215C100.491 42.2298 100.969 42.334 101.471 42.334C102.011 42.334 102.47 42.2331 102.848 42.0312C103.232 41.8359 103.528 41.5462 103.736 41.1621C103.945 40.778 104.049 40.3092 104.049 39.7559V31.8262L104.264 29.4336ZM97.0859 34.834V34.6289C97.0859 33.8281 97.1836 33.099 97.3789 32.4414C97.5742 31.7773 97.8542 31.2077 98.2188 30.7324C98.5833 30.2507 99.026 29.8828 99.5469 29.6289C100.068 29.3685 100.657 29.2383 101.314 29.2383C101.998 29.2383 102.581 29.362 103.062 29.6094C103.551 29.8568 103.958 30.2116 104.283 30.6738C104.609 31.1296 104.863 31.6764 105.045 32.3145C105.234 32.946 105.374 33.6491 105.465 34.4238V35.0781C105.38 35.8333 105.237 36.5234 105.035 37.1484C104.833 37.7734 104.566 38.3138 104.234 38.7695C103.902 39.2253 103.492 39.5768 103.004 39.8242C102.522 40.0716 101.952 40.1953 101.295 40.1953C100.65 40.1953 100.068 40.0618 99.5469 39.7949C99.0326 39.528 98.5898 39.1536 98.2188 38.6719C97.8542 38.1901 97.5742 37.6237 97.3789 36.9727C97.1836 36.3151 97.0859 35.6022 97.0859 34.834ZM99.4395 34.6289V34.834C99.4395 35.3158 99.485 35.765 99.5762 36.1816C99.6738 36.5983 99.8203 36.9661 100.016 37.2852C100.217 37.5977 100.471 37.8451 100.777 38.0273C101.09 38.2031 101.458 38.291 101.881 38.291C102.434 38.291 102.887 38.1738 103.238 37.9395C103.596 37.7051 103.87 37.3893 104.059 36.9922C104.254 36.5885 104.391 36.1393 104.469 35.6445V33.877C104.43 33.4928 104.348 33.1348 104.225 32.8027C104.107 32.4707 103.948 32.181 103.746 31.9336C103.544 31.6797 103.29 31.4844 102.984 31.3477C102.678 31.2044 102.317 31.1328 101.9 31.1328C101.477 31.1328 101.109 31.224 100.797 31.4062C100.484 31.5885 100.227 31.8392 100.025 32.1582C99.8301 32.4772 99.6836 32.8483 99.5859 33.2715C99.4883 33.6947 99.4395 34.1471 99.4395 34.6289ZM111.363 29.4336V40H109V29.4336H111.363ZM108.844 26.6602C108.844 26.3021 108.961 26.0059 109.195 25.7715C109.436 25.5306 109.768 25.4102 110.191 25.4102C110.608 25.4102 110.937 25.5306 111.178 25.7715C111.419 26.0059 111.539 26.3021 111.539 26.6602C111.539 27.0117 111.419 27.3047 111.178 27.5391C110.937 27.7734 110.608 27.8906 110.191 27.8906C109.768 27.8906 109.436 27.7734 109.195 27.5391C108.961 27.3047 108.844 27.0117 108.844 26.6602ZM116.275 31.6895V40H113.922V29.4336H116.139L116.275 31.6895ZM115.855 34.3262L115.094 34.3164C115.1 33.5677 115.204 32.8809 115.406 32.2559C115.615 31.6309 115.901 31.0938 116.266 30.6445C116.637 30.1953 117.079 29.8503 117.594 29.6094C118.108 29.362 118.681 29.2383 119.312 29.2383C119.82 29.2383 120.279 29.3099 120.689 29.4531C121.106 29.5898 121.461 29.8145 121.754 30.127C122.053 30.4395 122.281 30.8464 122.438 31.3477C122.594 31.8424 122.672 32.4512 122.672 33.1738V40H120.309V33.1641C120.309 32.6562 120.234 32.2559 120.084 31.9629C119.941 31.6634 119.729 31.4518 119.449 31.3281C119.176 31.1979 118.834 31.1328 118.424 31.1328C118.02 31.1328 117.659 31.2174 117.34 31.3867C117.021 31.556 116.751 31.7871 116.529 32.0801C116.314 32.373 116.148 32.7116 116.031 33.0957C115.914 33.4798 115.855 33.89 115.855 34.3262Z" fill="#202020"/>
<path d="M2 35.5389C2 28.7217 2 25.3132 4.10883 23.1953C6.21766 21.0774 9.61177 21.0774 16.4 21.0774H35.6C42.3882 21.0774 45.7822 21.0774 47.8911 23.1953C50 25.3132 50 28.7217 50 35.5389C50 42.3561 50 45.7647 47.8911 47.8826C45.7822 50.0005 42.3882 50.0005 35.6 50.0005H16.4C9.61177 50.0005 6.21766 50.0005 4.10883 47.8826C2 45.7647 2 42.3561 2 35.5389Z" stroke="#4BADE5" stroke-width="4"/>
<path opacity="0.5" d="M11.5385 21.0772V16.3079C11.5385 8.406 18.0131 2.00023 26 2.00023C33.9869 2.00023 40.4615 8.406 40.4615 16.3079V21.0772" stroke="#FCD554" stroke-width="4" stroke-linecap="round"/>
<g opacity="0.5">
<path d="M18.7267 35.6232C18.7267 36.9518 17.6496 38.0288 16.321 38.0288C14.9925 38.0288 13.9154 36.9518 13.9154 35.6232C13.9154 34.2945 14.9925 33.2175 16.321 33.2175C17.6496 33.2175 18.7267 34.2945 18.7267 35.6232Z" fill="#D5D5D5"/>
<path d="M28.3493 35.6232C28.3493 36.9518 27.2723 38.0288 25.9436 38.0288C24.615 38.0288 23.538 36.9518 23.538 35.6232C23.538 34.2945 24.615 33.2175 25.9436 33.2175C27.2723 33.2175 28.3493 34.2945 28.3493 35.6232Z" fill="#D5D5D5"/>
<path d="M37.9718 35.6232C37.9718 36.9518 36.8948 38.0288 35.5662 38.0288C34.2375 38.0288 33.1605 36.9518 33.1605 35.6232C33.1605 34.2945 34.2375 33.2175 35.5662 33.2175C36.8948 33.2175 37.9718 34.2945 37.9718 35.6232Z" fill="#D5D5D5"/>
</g>
</svg>
