<svg width="14" height="14" viewBox="0 0 14 14" fill="none" xmlns="http://www.w3.org/2000/svg">
<path fill-rule="evenodd" clip-rule="evenodd" d="M6.75683 5.06748C7.3477 4.21191 7.23039 3.05395 6.4798 2.33435C5.71873 1.60329 4.55474 1.4918 3.66873 2.06511C3.305 2.30022 3.01956 2.6384 2.84888 3.03646C2.68066 3.43064 2.63657 3.86672 2.72249 4.28658C2.80877 4.70839 3.01992 5.0945 3.3285 5.39473C3.64296 5.69869 4.03917 5.90447 4.46867 5.98689C4.90115 6.0713 5.34882 6.02897 5.75777 5.86482C6.1619 5.7031 6.50941 5.42572 6.75683 5.06748Z" stroke="#4BADE5" stroke-width="1.5" stroke-linecap="round" stroke-linejoin="round"/>
<path fill-rule="evenodd" clip-rule="evenodd" d="M7.50626 11.9935C6.91531 11.1379 7.03271 9.97996 7.7833 9.26036C8.54437 8.52933 9.70835 8.41782 10.5943 8.99111C10.9581 9.22625 11.2435 9.5644 11.4142 9.96247C11.5824 10.3566 11.6265 10.7927 11.5406 11.2126C11.4543 11.6344 11.2431 12.0205 10.9346 12.3207C10.6201 12.6247 10.2239 12.8305 9.7944 12.9129C9.36266 12.9965 8.91603 12.9538 8.50792 12.79C8.10293 12.6288 7.75447 12.3518 7.50626 11.9935Z" stroke="#4BADE5" stroke-width="1.5" stroke-linecap="round" stroke-linejoin="round"/>
<path d="M7.13133 3.21558C6.77274 3.21558 6.48203 3.50627 6.48203 3.86488C6.48203 4.22347 6.77274 4.51418 7.13133 4.51418V3.21558ZM13.1915 4.51418C13.5501 4.51418 13.8408 4.22347 13.8408 3.86488C13.8408 3.50627 13.5501 3.21558 13.1915 3.21558V4.51418ZM2.67885 4.51418C3.03745 4.51418 3.32815 4.22347 3.32815 3.86488C3.32815 3.50627 3.03745 3.21558 2.67885 3.21558V4.51418ZM1.07118 3.21558C0.712581 3.21558 0.421875 3.50627 0.421875 3.86488C0.421875 4.22347 0.712581 4.51418 1.07118 4.51418V3.21558ZM7.13133 11.4401C7.48992 11.4401 7.78063 11.1494 7.78063 10.7908C7.78063 10.4322 7.48992 10.1415 7.13133 10.1415V11.4401ZM1.07118 10.1415C0.712581 10.1415 0.421875 10.4322 0.421875 10.7908C0.421875 11.1494 0.712581 11.4401 1.07118 11.4401V10.1415ZM11.5838 10.1415C11.2252 10.1415 10.9345 10.4322 10.9345 10.7908C10.9345 11.1494 11.2252 11.4401 11.5838 11.4401V10.1415ZM13.1915 11.4401C13.5501 11.4401 13.8408 11.1494 13.8408 10.7908C13.8408 10.4322 13.5501 10.1415 13.1915 10.1415V11.4401ZM7.13133 4.51418H13.1915V3.21558H7.13133V4.51418ZM2.67885 3.21558H1.07118V4.51418H2.67885V3.21558ZM7.13133 10.1415H1.07118V11.4401H7.13133V10.1415ZM11.5838 11.4401H13.1915V10.1415H11.5838V11.4401Z" fill="#4BADE5"/>
</svg>
