<svg width="19" height="19" viewBox="0 0 19 19" fill="none" xmlns="http://www.w3.org/2000/svg">
<path d="M10.3953 1.39709L12.6703 5.54946C12.7232 5.64709 12.797 5.73174 12.8866 5.79731C12.9761 5.86289 13.0792 5.90773 13.1882 5.92861L17.8122 6.80718C17.9441 6.83216 18.0668 6.89212 18.1675 6.98075C18.2683 7.06939 18.3434 7.18348 18.3851 7.31107C18.4266 7.43867 18.4331 7.57506 18.4039 7.7061C18.3748 7.83706 18.311 7.95783 18.2191 8.05568L14.9731 11.5052C14.8976 11.5862 14.841 11.683 14.8074 11.7886C14.7739 11.8941 14.7642 12.0058 14.7789 12.1156L15.3707 16.8136C15.3891 16.9461 15.371 17.0812 15.3187 17.2043C15.2663 17.3275 15.1815 17.4341 15.0733 17.5129C14.9651 17.5916 14.8376 17.6396 14.7043 17.6516C14.5711 17.6637 14.4371 17.6393 14.3165 17.5812L10.0346 15.5651C9.93419 15.5147 9.8233 15.4884 9.71094 15.4884C9.59858 15.4884 9.48769 15.5147 9.38726 15.5651L5.10541 17.5812C4.9843 17.6384 4.85009 17.6621 4.71672 17.6498C4.58336 17.6375 4.45575 17.5896 4.34715 17.5113C4.23855 17.4328 4.15292 17.3268 4.09923 17.204C4.04555 17.0814 4.02576 16.9466 4.04189 16.8136L4.64301 12.1156C4.65777 12.0058 4.64802 11.8941 4.61444 11.7886C4.58086 11.683 4.52428 11.5862 4.4488 11.5052L1.20273 8.05568C1.11092 7.95783 1.04711 7.83706 1.01793 7.7061C0.988744 7.57506 0.995282 7.43867 1.03686 7.31107C1.07845 7.18348 1.15356 7.06939 1.25432 6.98075C1.35508 6.89212 1.47779 6.83216 1.60965 6.80718L6.23367 5.92861C6.3427 5.90773 6.44572 5.86289 6.53529 5.79731C6.62486 5.73174 6.69872 5.64709 6.75155 5.54946L9.07282 1.39709C9.13664 1.27716 9.23198 1.17686 9.34842 1.10691C9.46494 1.03696 9.59821 1 9.73406 1C9.86991 1 10.0033 1.03696 10.1197 1.10691C10.2362 1.17686 10.3315 1.27716 10.3953 1.39709Z" stroke="#4BADE5" stroke-linecap="round" stroke-linejoin="round"/>
</svg>
