<svg width="640" height="45" viewBox="0 0 640 45" fill="none" xmlns="http://www.w3.org/2000/svg">
<circle cx="324" cy="35" r="5" fill="#4BADE5"/>
<path d="M3.80273 2.87256L1.21387 10H0.155762L3.13672 2.17969H3.81885L3.80273 2.87256ZM5.97266 10L3.37842 2.87256L3.3623 2.17969H4.04443L7.03613 10H5.97266ZM5.83838 7.10498V7.95361H1.44482V7.10498H5.83838ZM9.22217 8.96875L10.7153 4.18848H11.3706L11.2417 5.13916L9.72168 10H9.08252L9.22217 8.96875ZM8.21777 4.18848L9.49072 9.02246L9.58203 10H8.91064L7.22412 4.18848H8.21777ZM12.7993 8.98486L14.0132 4.18848H15.0015L13.3149 10H12.6489L12.7993 8.98486ZM11.5156 4.18848L12.9766 8.88818L13.1431 10H12.5093L10.9463 5.12842L10.8174 4.18848H11.5156ZM17.5044 10H16.5107V3.57617C16.5107 3.15723 16.5859 2.80452 16.7363 2.51807C16.8903 2.22803 17.1105 2.0096 17.397 1.86279C17.6834 1.7124 18.0236 1.63721 18.4175 1.63721C18.5321 1.63721 18.6466 1.64437 18.7612 1.65869C18.8794 1.67301 18.994 1.6945 19.105 1.72314L19.0513 2.53418C18.9761 2.51628 18.8901 2.50374 18.7935 2.49658C18.7004 2.48942 18.6073 2.48584 18.5142 2.48584C18.3029 2.48584 18.1203 2.52881 17.9663 2.61475C17.8159 2.6971 17.7013 2.81885 17.6226 2.97998C17.5438 3.14111 17.5044 3.33984 17.5044 3.57617V10ZM18.7397 4.18848V4.95117H15.5923V4.18848H18.7397ZM23.4019 8.65723V4.18848H24.4009V10H23.4502L23.4019 8.65723ZM23.5898 7.43262L24.0034 7.42188C24.0034 7.80859 23.9622 8.16667 23.8799 8.49609C23.8011 8.82194 23.6722 9.10482 23.4932 9.34473C23.3141 9.58464 23.0796 9.77262 22.7896 9.90869C22.4995 10.0412 22.1468 10.1074 21.7314 10.1074C21.4486 10.1074 21.189 10.0662 20.9526 9.98389C20.7199 9.90153 20.5194 9.77441 20.3511 9.60254C20.1828 9.43066 20.0521 9.20687 19.959 8.93115C19.8695 8.65544 19.8247 8.32422 19.8247 7.9375V4.18848H20.8184V7.94824C20.8184 8.20964 20.847 8.42627 20.9043 8.59814C20.9652 8.76644 21.0457 8.90072 21.146 9.00098C21.2498 9.09766 21.3644 9.16569 21.4897 9.20508C21.6187 9.24447 21.7511 9.26416 21.8872 9.26416C22.3097 9.26416 22.6445 9.18359 22.8916 9.02246C23.1387 8.85775 23.3159 8.63753 23.4233 8.36182C23.5343 8.08252 23.5898 7.77279 23.5898 7.43262ZM26.9951 1.75V10H25.9961V1.75H26.9951Z" fill="#202020"/>
<path d="M316.303 2.17969V10H315.266V2.17969H316.303ZM319.579 5.69775V6.54639H316.077V5.69775H319.579ZM320.111 2.17969V3.02832H316.077V2.17969H320.111ZM324.44 9.00635V6.01465C324.44 5.78548 324.393 5.58675 324.3 5.41846C324.211 5.24658 324.075 5.1141 323.892 5.021C323.709 4.9279 323.484 4.88135 323.215 4.88135C322.965 4.88135 322.744 4.92432 322.555 5.01025C322.368 5.09619 322.222 5.20898 322.114 5.34863C322.01 5.48828 321.958 5.63867 321.958 5.7998H320.965C320.965 5.59212 321.019 5.38623 321.126 5.18213C321.233 4.97803 321.387 4.79362 321.588 4.62891C321.792 4.46061 322.035 4.32812 322.318 4.23145C322.605 4.13118 322.924 4.08105 323.274 4.08105C323.697 4.08105 324.069 4.15267 324.392 4.2959C324.717 4.43913 324.972 4.65576 325.154 4.9458C325.34 5.23226 325.434 5.59212 325.434 6.02539V8.73242C325.434 8.92578 325.45 9.13167 325.482 9.3501C325.518 9.56852 325.57 9.75651 325.638 9.91406V10H324.601C324.551 9.88542 324.512 9.73324 324.483 9.54346C324.454 9.3501 324.44 9.17106 324.44 9.00635ZM324.612 6.47656L324.623 7.1748H323.618C323.335 7.1748 323.083 7.19808 322.861 7.24463C322.639 7.2876 322.453 7.35384 322.302 7.44336C322.152 7.53288 322.037 7.64567 321.958 7.78174C321.88 7.91423 321.84 8.06999 321.84 8.24902C321.84 8.43164 321.882 8.59814 321.964 8.74854C322.046 8.89893 322.17 9.01888 322.334 9.1084C322.503 9.19434 322.709 9.2373 322.952 9.2373C323.257 9.2373 323.525 9.17285 323.758 9.04395C323.991 8.91504 324.175 8.75749 324.311 8.57129C324.451 8.38509 324.526 8.20426 324.537 8.02881L324.961 8.50684C324.936 8.65723 324.868 8.82373 324.757 9.00635C324.646 9.18896 324.497 9.36442 324.311 9.53271C324.128 9.69743 323.91 9.83529 323.656 9.94629C323.405 10.0537 323.122 10.1074 322.807 10.1074C322.413 10.1074 322.068 10.0304 321.771 9.87646C321.477 9.72249 321.248 9.5166 321.083 9.25879C320.922 8.9974 320.841 8.70557 320.841 8.3833C320.841 8.07178 320.902 7.79785 321.024 7.56152C321.146 7.32161 321.321 7.12288 321.55 6.96533C321.779 6.8042 322.055 6.68245 322.377 6.6001C322.7 6.51774 323.06 6.47656 323.457 6.47656H324.612ZM328.076 4.18848V10H327.077V4.18848H328.076ZM327.002 2.64697C327.002 2.48584 327.05 2.34977 327.147 2.23877C327.247 2.12777 327.394 2.07227 327.587 2.07227C327.777 2.07227 327.922 2.12777 328.022 2.23877C328.126 2.34977 328.178 2.48584 328.178 2.64697C328.178 2.80094 328.126 2.93343 328.022 3.04443C327.922 3.15186 327.777 3.20557 327.587 3.20557C327.394 3.20557 327.247 3.15186 327.147 3.04443C327.05 2.93343 327.002 2.80094 327.002 2.64697ZM330.665 5.10156V10H329.671V4.18848H330.638L330.665 5.10156ZM332.48 4.15625L332.475 5.08008C332.393 5.06217 332.314 5.05143 332.239 5.04785C332.167 5.04069 332.085 5.03711 331.992 5.03711C331.763 5.03711 331.56 5.07292 331.385 5.14453C331.209 5.21615 331.061 5.31641 330.939 5.44531C330.817 5.57422 330.721 5.72819 330.649 5.90723C330.581 6.08268 330.536 6.27604 330.515 6.4873L330.235 6.64844C330.235 6.29753 330.269 5.9681 330.337 5.66016C330.409 5.35221 330.518 5.08008 330.665 4.84375C330.812 4.60384 330.998 4.41764 331.224 4.28516C331.453 4.14909 331.725 4.08105 332.04 4.08105C332.112 4.08105 332.194 4.09001 332.287 4.10791C332.38 4.12223 332.445 4.13835 332.48 4.15625Z" fill="#202020"/>
<path d="M592.434 2.87256L589.845 10H588.787L591.768 2.17969H592.45L592.434 2.87256ZM594.604 10L592.009 2.87256L591.993 2.17969H592.675L595.667 10H594.604ZM594.469 7.10498V7.95361H590.076V7.10498H594.469ZM597.853 8.96875L599.346 4.18848H600.001L599.873 5.13916L598.353 10H597.713L597.853 8.96875ZM596.849 4.18848L598.122 9.02246L598.213 10H597.542L595.855 4.18848H596.849ZM601.43 8.98486L602.644 4.18848H603.632L601.946 10H601.28L601.43 8.98486ZM600.146 4.18848L601.607 8.88818L601.774 10H601.14L599.577 5.12842L599.448 4.18848H600.146ZM607.064 10.1074C606.66 10.1074 606.293 10.0394 605.963 9.90332C605.638 9.76367 605.356 9.56852 605.12 9.31787C604.887 9.06722 604.708 8.77002 604.583 8.42627C604.458 8.08252 604.395 7.70654 604.395 7.29834V7.07275C604.395 6.6001 604.465 6.17936 604.604 5.81055C604.744 5.43815 604.934 5.12305 605.174 4.86523C605.414 4.60742 605.686 4.41227 605.99 4.27979C606.295 4.1473 606.61 4.08105 606.936 4.08105C607.351 4.08105 607.709 4.15267 608.01 4.2959C608.314 4.43913 608.563 4.63965 608.756 4.89746C608.95 5.15169 609.093 5.45247 609.186 5.7998C609.279 6.14355 609.326 6.51953 609.326 6.92773V7.37354H604.986V6.5625H608.332V6.4873C608.318 6.22949 608.264 5.97884 608.171 5.73535C608.081 5.49186 607.938 5.29134 607.741 5.13379C607.544 4.97624 607.276 4.89746 606.936 4.89746C606.71 4.89746 606.502 4.9458 606.312 5.04248C606.123 5.13558 605.96 5.27523 605.824 5.46143C605.688 5.64762 605.582 5.875 605.507 6.14355C605.432 6.41211 605.394 6.72184 605.394 7.07275V7.29834C605.394 7.57406 605.432 7.83366 605.507 8.07715C605.586 8.31706 605.698 8.52832 605.845 8.71094C605.996 8.89355 606.176 9.03678 606.388 9.14062C606.603 9.24447 606.846 9.29639 607.118 9.29639C607.469 9.29639 607.766 9.22477 608.01 9.08154C608.253 8.93831 608.466 8.74674 608.649 8.50684L609.25 8.98486C609.125 9.17464 608.966 9.35547 608.772 9.52734C608.579 9.69922 608.341 9.83887 608.058 9.94629C607.779 10.0537 607.448 10.1074 607.064 10.1074ZM613.87 8.4585C613.87 8.31527 613.837 8.18278 613.773 8.06104C613.712 7.93571 613.585 7.82292 613.392 7.72266C613.202 7.61882 612.915 7.5293 612.532 7.4541C612.21 7.38607 611.918 7.3055 611.657 7.2124C611.399 7.1193 611.179 7.00651 610.996 6.87402C610.817 6.74154 610.679 6.58577 610.583 6.40674C610.486 6.2277 610.438 6.01823 610.438 5.77832C610.438 5.54915 610.488 5.33252 610.588 5.12842C610.692 4.92432 610.837 4.74349 611.023 4.58594C611.213 4.42839 611.44 4.30485 611.705 4.21533C611.97 4.12581 612.265 4.08105 612.591 4.08105C613.057 4.08105 613.454 4.16341 613.784 4.32812C614.113 4.49284 614.366 4.71305 614.541 4.98877C614.716 5.2609 614.804 5.56348 614.804 5.89648H613.811C613.811 5.73535 613.762 5.57959 613.666 5.4292C613.572 5.27523 613.435 5.14811 613.252 5.04785C613.073 4.94759 612.853 4.89746 612.591 4.89746C612.316 4.89746 612.092 4.94043 611.92 5.02637C611.752 5.10872 611.628 5.21436 611.549 5.34326C611.474 5.47217 611.437 5.60824 611.437 5.75146C611.437 5.85889 611.454 5.95557 611.49 6.0415C611.53 6.12386 611.598 6.20085 611.694 6.27246C611.791 6.34049 611.927 6.40495 612.103 6.46582C612.278 6.52669 612.502 6.58757 612.774 6.64844C613.25 6.75586 613.642 6.88477 613.95 7.03516C614.258 7.18555 614.487 7.36995 614.638 7.58838C614.788 7.8068 614.863 8.07178 614.863 8.3833C614.863 8.63753 614.81 8.87028 614.702 9.08154C614.598 9.29281 614.446 9.47542 614.246 9.62939C614.049 9.77979 613.812 9.89795 613.537 9.98389C613.264 10.0662 612.958 10.1074 612.618 10.1074C612.106 10.1074 611.673 10.0161 611.318 9.8335C610.964 9.65088 610.695 9.41455 610.513 9.12451C610.33 8.83447 610.239 8.52832 610.239 8.20605H611.238C611.252 8.47819 611.331 8.69482 611.474 8.85596C611.617 9.01351 611.793 9.1263 612 9.19434C612.208 9.25879 612.414 9.29102 612.618 9.29102C612.89 9.29102 613.118 9.25521 613.3 9.18359C613.486 9.11198 613.628 9.01351 613.725 8.88818C613.821 8.76286 613.87 8.61963 613.87 8.4585ZM615.905 7.15869V7.03516C615.905 6.61621 615.966 6.2277 616.088 5.86963C616.21 5.50798 616.385 5.19466 616.614 4.92969C616.843 4.66113 617.121 4.45345 617.447 4.30664C617.773 4.15625 618.138 4.08105 618.542 4.08105C618.951 4.08105 619.318 4.15625 619.644 4.30664C619.973 4.45345 620.252 4.66113 620.481 4.92969C620.714 5.19466 620.891 5.50798 621.013 5.86963C621.135 6.2277 621.196 6.61621 621.196 7.03516V7.15869C621.196 7.57764 621.135 7.96615 621.013 8.32422C620.891 8.68229 620.714 8.99561 620.481 9.26416C620.252 9.52913 619.975 9.73682 619.649 9.88721C619.327 10.034 618.961 10.1074 618.553 10.1074C618.145 10.1074 617.778 10.034 617.452 9.88721C617.126 9.73682 616.847 9.52913 616.614 9.26416C616.385 8.99561 616.21 8.68229 616.088 8.32422C615.966 7.96615 615.905 7.57764 615.905 7.15869ZM616.899 7.03516V7.15869C616.899 7.44873 616.933 7.72266 617.001 7.98047C617.069 8.2347 617.171 8.46029 617.307 8.65723C617.447 8.85417 617.62 9.00993 617.828 9.12451C618.036 9.23551 618.278 9.29102 618.553 9.29102C618.825 9.29102 619.063 9.23551 619.268 9.12451C619.475 9.00993 619.647 8.85417 619.783 8.65723C619.919 8.46029 620.021 8.2347 620.089 7.98047C620.161 7.72266 620.197 7.44873 620.197 7.15869V7.03516C620.197 6.7487 620.161 6.47835 620.089 6.22412C620.021 5.96631 619.917 5.73893 619.778 5.54199C619.642 5.34147 619.47 5.18392 619.262 5.06934C619.058 4.95475 618.818 4.89746 618.542 4.89746C618.27 4.89746 618.03 4.95475 617.823 5.06934C617.619 5.18392 617.447 5.34147 617.307 5.54199C617.171 5.73893 617.069 5.96631 617.001 6.22412C616.933 6.47835 616.899 6.7487 616.899 7.03516ZM623.43 5.34326V10H622.431V4.18848H623.376L623.43 5.34326ZM623.226 6.87402L622.764 6.85791C622.768 6.46045 622.82 6.09342 622.92 5.75684C623.02 5.41667 623.169 5.12126 623.366 4.87061C623.563 4.61995 623.808 4.4266 624.102 4.29053C624.395 4.15088 624.735 4.08105 625.122 4.08105C625.394 4.08105 625.645 4.12044 625.874 4.19922C626.103 4.27441 626.302 4.39437 626.47 4.55908C626.639 4.7238 626.769 4.93506 626.862 5.19287C626.955 5.45068 627.002 5.76221 627.002 6.12744V10H626.008V6.17578C626.008 5.87142 625.956 5.62793 625.853 5.44531C625.752 5.2627 625.609 5.13021 625.423 5.04785C625.237 4.96191 625.018 4.91895 624.768 4.91895C624.474 4.91895 624.229 4.97087 624.032 5.07471C623.835 5.17855 623.677 5.32178 623.559 5.50439C623.441 5.68701 623.355 5.89648 623.301 6.13281C623.251 6.36556 623.226 6.61263 623.226 6.87402ZM626.991 6.32617L626.325 6.53027C626.329 6.21159 626.381 5.90544 626.481 5.61182C626.585 5.3182 626.733 5.0568 626.927 4.82764C627.124 4.59847 627.365 4.41764 627.652 4.28516C627.938 4.14909 628.266 4.08105 628.635 4.08105C628.946 4.08105 629.222 4.12223 629.462 4.20459C629.705 4.28695 629.91 4.41406 630.074 4.58594C630.243 4.75423 630.37 4.97087 630.456 5.23584C630.542 5.50081 630.584 5.81592 630.584 6.18115V10H629.585V6.17041C629.585 5.84456 629.534 5.59212 629.43 5.41309C629.329 5.23047 629.186 5.10335 629 5.03174C628.817 4.95654 628.599 4.91895 628.345 4.91895C628.126 4.91895 627.933 4.95654 627.765 5.03174C627.596 5.10693 627.455 5.21077 627.34 5.34326C627.226 5.47217 627.138 5.62077 627.077 5.78906C627.02 5.95736 626.991 6.13639 626.991 6.32617ZM634.5 10.1074C634.095 10.1074 633.728 10.0394 633.399 9.90332C633.073 9.76367 632.792 9.56852 632.556 9.31787C632.323 9.06722 632.144 8.77002 632.019 8.42627C631.893 8.08252 631.831 7.70654 631.831 7.29834V7.07275C631.831 6.6001 631.9 6.17936 632.04 5.81055C632.18 5.43815 632.369 5.12305 632.609 4.86523C632.849 4.60742 633.121 4.41227 633.426 4.27979C633.73 4.1473 634.045 4.08105 634.371 4.08105C634.786 4.08105 635.145 4.15267 635.445 4.2959C635.75 4.43913 635.999 4.63965 636.192 4.89746C636.385 5.15169 636.528 5.45247 636.622 5.7998C636.715 6.14355 636.761 6.51953 636.761 6.92773V7.37354H632.421V6.5625H635.768V6.4873C635.753 6.22949 635.7 5.97884 635.606 5.73535C635.517 5.49186 635.374 5.29134 635.177 5.13379C634.98 4.97624 634.711 4.89746 634.371 4.89746C634.146 4.89746 633.938 4.9458 633.748 5.04248C633.558 5.13558 633.395 5.27523 633.259 5.46143C633.123 5.64762 633.018 5.875 632.942 6.14355C632.867 6.41211 632.83 6.72184 632.83 7.07275V7.29834C632.83 7.57406 632.867 7.83366 632.942 8.07715C633.021 8.31706 633.134 8.52832 633.281 8.71094C633.431 8.89355 633.612 9.03678 633.823 9.14062C634.038 9.24447 634.282 9.29639 634.554 9.29639C634.905 9.29639 635.202 9.22477 635.445 9.08154C635.689 8.93831 635.902 8.74674 636.084 8.50684L636.686 8.98486C636.561 9.17464 636.401 9.35547 636.208 9.52734C636.015 9.69922 635.777 9.83887 635.494 9.94629C635.214 10.0537 634.883 10.1074 634.5 10.1074ZM639.103 2.17969L639.033 7.79248H638.136L638.061 2.17969H639.103ZM638.029 9.50049C638.029 9.33936 638.077 9.20329 638.174 9.09229C638.274 8.98128 638.421 8.92578 638.614 8.92578C638.804 8.92578 638.949 8.98128 639.049 9.09229C639.153 9.20329 639.205 9.33936 639.205 9.50049C639.205 9.65446 639.153 9.78695 639.049 9.89795C638.949 10.009 638.804 10.0645 638.614 10.0645C638.421 10.0645 638.274 10.009 638.174 9.89795C638.077 9.78695 638.029 9.65446 638.029 9.50049Z" fill="#202020"/>
<rect x="4.03516" y="33" width="632" height="3" fill="#D9D9D9"/>
<circle cx="632" cy="35" r="5" fill="#4BADE5"/>
<circle cx="632" cy="35" r="5" fill="#D9D9D9"/>
<rect x="4" y="33" width="474" height="3" fill="#4BADE5"/>
<rect x="5.03516" y="33" width="326" height="3" fill="#4BADE5"/>
<circle cx="7" cy="35" r="5" fill="#4BADE5"/>
<circle cx="167" cy="35" r="5" fill="#4BADE5"/>
<circle cx="167" cy="35" r="5" fill="#4BADE5"/>
<circle cx="476.5" cy="34.5" r="10.5" fill="#4BADE5"/>
<circle cx="476" cy="35" r="5" fill="#4BADE5"/>
<circle cx="476" cy="35" r="5" fill="#4BADE5"/>
</svg>
