<svg width="140" height="53" viewBox="0 0 140 53" fill="none" xmlns="http://www.w3.org/2000/svg">
<path d="M66.6895 21.7812H71.7188C72.7995 21.7812 73.7207 21.944 74.4824 22.2695C75.2441 22.5951 75.8268 23.0768 76.2305 23.7148C76.6406 24.3464 76.8457 25.1276 76.8457 26.0586C76.8457 26.7682 76.7155 27.3932 76.4551 27.9336C76.1947 28.474 75.8268 28.9297 75.3516 29.3008C74.8763 29.6654 74.3099 29.9486 73.6523 30.1504L72.9102 30.5117H68.3887L68.3691 28.5684H71.7578C72.3438 28.5684 72.832 28.4642 73.2227 28.2559C73.6133 28.0475 73.9062 27.7643 74.1016 27.4062C74.3034 27.0417 74.4043 26.6315 74.4043 26.1758C74.4043 25.681 74.3066 25.2513 74.1113 24.8867C73.9225 24.5156 73.6296 24.2324 73.2324 24.0371C72.8353 23.8353 72.3307 23.7344 71.7188 23.7344H69.1406V36H66.6895V21.7812ZM74.8047 36L71.4648 29.6133L74.0332 29.6035L77.4219 35.873V36H74.8047ZM83.7109 36.1953C82.9297 36.1953 82.2233 36.0684 81.5918 35.8145C80.9668 35.554 80.4329 35.1927 79.9902 34.7305C79.554 34.2682 79.2188 33.7246 78.9844 33.0996C78.75 32.4746 78.6328 31.8008 78.6328 31.0781V30.6875C78.6328 29.8607 78.7533 29.112 78.9941 28.4414C79.235 27.7708 79.5703 27.1979 80 26.7227C80.4297 26.2409 80.9375 25.873 81.5234 25.6191C82.1094 25.3652 82.7441 25.2383 83.4277 25.2383C84.1829 25.2383 84.8438 25.3652 85.4102 25.6191C85.9766 25.873 86.4453 26.2311 86.8164 26.6934C87.194 27.1491 87.474 27.6927 87.6562 28.3242C87.8451 28.9557 87.9395 29.6523 87.9395 30.4141V31.4199H79.7754V29.7305H85.6152V29.5449C85.6022 29.1217 85.5176 28.7246 85.3613 28.3535C85.2116 27.9824 84.9805 27.6829 84.668 27.4551C84.3555 27.2272 83.9388 27.1133 83.418 27.1133C83.0273 27.1133 82.679 27.1979 82.373 27.3672C82.0736 27.5299 81.8229 27.7676 81.6211 28.0801C81.4193 28.3926 81.263 28.7702 81.1523 29.2129C81.0482 29.6491 80.9961 30.1406 80.9961 30.6875V31.0781C80.9961 31.5404 81.0579 31.9701 81.1816 32.3672C81.3118 32.7578 81.5007 33.0996 81.748 33.3926C81.9954 33.6855 82.2949 33.9167 82.6465 34.0859C82.998 34.2487 83.3984 34.3301 83.8477 34.3301C84.4141 34.3301 84.9186 34.2161 85.3613 33.9883C85.804 33.7604 86.1882 33.4382 86.5137 33.0215L87.7539 34.2227C87.526 34.5547 87.2298 34.8737 86.8652 35.1797C86.5007 35.4792 86.0547 35.7233 85.5273 35.9121C85.0065 36.1009 84.401 36.1953 83.7109 36.1953ZM96.543 25.4336H98.6816V35.707C98.6816 36.6576 98.4798 37.4648 98.0762 38.1289C97.6725 38.793 97.1094 39.2975 96.3867 39.6426C95.6641 39.9941 94.8275 40.1699 93.877 40.1699C93.4733 40.1699 93.0241 40.1113 92.5293 39.9941C92.041 39.877 91.5658 39.6882 91.1035 39.4277C90.6478 39.1738 90.2669 38.8385 89.9609 38.4219L91.0645 37.0352C91.4421 37.4844 91.8587 37.8132 92.3145 38.0215C92.7702 38.2298 93.2487 38.334 93.75 38.334C94.2904 38.334 94.7493 38.2331 95.127 38.0312C95.5111 37.8359 95.8073 37.5462 96.0156 37.1621C96.224 36.778 96.3281 36.3092 96.3281 35.7559V27.8262L96.543 25.4336ZM89.3652 30.834V30.6289C89.3652 29.8281 89.4629 29.099 89.6582 28.4414C89.8535 27.7773 90.1335 27.2077 90.498 26.7324C90.8626 26.2507 91.3053 25.8828 91.8262 25.6289C92.347 25.3685 92.9362 25.2383 93.5938 25.2383C94.2773 25.2383 94.86 25.362 95.3418 25.6094C95.8301 25.8568 96.237 26.2116 96.5625 26.6738C96.888 27.1296 97.1419 27.6764 97.3242 28.3145C97.513 28.946 97.653 29.6491 97.7441 30.4238V31.0781C97.6595 31.8333 97.5163 32.5234 97.3145 33.1484C97.1126 33.7734 96.8457 34.3138 96.5137 34.7695C96.1816 35.2253 95.7715 35.5768 95.2832 35.8242C94.8014 36.0716 94.2318 36.1953 93.5742 36.1953C92.9297 36.1953 92.347 36.0618 91.8262 35.7949C91.3118 35.528 90.8691 35.1536 90.498 34.6719C90.1335 34.1901 89.8535 33.6237 89.6582 32.9727C89.4629 32.3151 89.3652 31.6022 89.3652 30.834ZM91.7188 30.6289V30.834C91.7188 31.3158 91.7643 31.765 91.8555 32.1816C91.9531 32.5983 92.0996 32.9661 92.2949 33.2852C92.4967 33.5977 92.7507 33.8451 93.0566 34.0273C93.3691 34.2031 93.737 34.291 94.1602 34.291C94.7135 34.291 95.166 34.1738 95.5176 33.9395C95.8757 33.7051 96.1491 33.3893 96.3379 32.9922C96.5332 32.5885 96.6699 32.1393 96.748 31.6445V29.877C96.709 29.4928 96.6276 29.1348 96.5039 28.8027C96.3867 28.4707 96.2272 28.181 96.0254 27.9336C95.8236 27.6797 95.5697 27.4844 95.2637 27.3477C94.9577 27.2044 94.5964 27.1328 94.1797 27.1328C93.7565 27.1328 93.3887 27.224 93.0762 27.4062C92.7637 27.5885 92.5065 27.8392 92.3047 28.1582C92.1094 28.4772 91.9629 28.8483 91.8652 29.2715C91.7676 29.6947 91.7188 30.1471 91.7188 30.6289ZM103.643 25.4336V36H101.279V25.4336H103.643ZM101.123 22.6602C101.123 22.3021 101.24 22.0059 101.475 21.7715C101.715 21.5306 102.048 21.4102 102.471 21.4102C102.887 21.4102 103.216 21.5306 103.457 21.7715C103.698 22.0059 103.818 22.3021 103.818 22.6602C103.818 23.0117 103.698 23.3047 103.457 23.5391C103.216 23.7734 102.887 23.8906 102.471 23.8906C102.048 23.8906 101.715 23.7734 101.475 23.5391C101.24 23.3047 101.123 23.0117 101.123 22.6602ZM112.148 33.1387C112.148 32.9043 112.09 32.6927 111.973 32.5039C111.855 32.3086 111.631 32.1328 111.299 31.9766C110.973 31.8203 110.492 31.6771 109.854 31.5469C109.294 31.4232 108.779 31.2767 108.311 31.1074C107.848 30.9316 107.451 30.7201 107.119 30.4727C106.787 30.2253 106.53 29.9323 106.348 29.5938C106.165 29.2552 106.074 28.8646 106.074 28.4219C106.074 27.9922 106.169 27.5853 106.357 27.2012C106.546 26.8171 106.816 26.4785 107.168 26.1855C107.52 25.8926 107.946 25.6615 108.447 25.4922C108.955 25.3229 109.521 25.2383 110.146 25.2383C111.032 25.2383 111.79 25.388 112.422 25.6875C113.06 25.9805 113.548 26.3809 113.887 26.8887C114.225 27.39 114.395 27.9564 114.395 28.5879H112.041C112.041 28.3079 111.969 28.0475 111.826 27.8066C111.689 27.5592 111.481 27.3607 111.201 27.2109C110.921 27.0547 110.57 26.9766 110.146 26.9766C109.743 26.9766 109.408 27.0417 109.141 27.1719C108.88 27.2956 108.685 27.4583 108.555 27.6602C108.431 27.862 108.369 28.0833 108.369 28.3242C108.369 28.5 108.402 28.6595 108.467 28.8027C108.538 28.9395 108.656 29.0664 108.818 29.1836C108.981 29.2943 109.202 29.3984 109.482 29.4961C109.769 29.5938 110.127 29.6882 110.557 29.7793C111.364 29.9486 112.057 30.1667 112.637 30.4336C113.223 30.694 113.672 31.0326 113.984 31.4492C114.297 31.8594 114.453 32.3802 114.453 33.0117C114.453 33.4805 114.352 33.9102 114.15 34.3008C113.955 34.6849 113.669 35.0202 113.291 35.3066C112.913 35.5866 112.461 35.8047 111.934 35.9609C111.413 36.1172 110.827 36.1953 110.176 36.1953C109.219 36.1953 108.408 36.026 107.744 35.6875C107.08 35.3424 106.576 34.903 106.23 34.3691C105.892 33.8288 105.723 33.2689 105.723 32.6895H107.998C108.024 33.1257 108.145 33.474 108.359 33.7344C108.581 33.9883 108.854 34.1738 109.18 34.291C109.512 34.4017 109.854 34.457 110.205 34.457C110.628 34.457 110.983 34.4017 111.27 34.291C111.556 34.1738 111.774 34.0176 111.924 33.8223C112.074 33.6204 112.148 33.3926 112.148 33.1387ZM121.357 25.4336V27.1523H115.4V25.4336H121.357ZM117.119 22.8457H119.473V33.0801C119.473 33.4056 119.518 33.6562 119.609 33.832C119.707 34.0013 119.84 34.1152 120.01 34.1738C120.179 34.2324 120.378 34.2617 120.605 34.2617C120.768 34.2617 120.924 34.252 121.074 34.2324C121.224 34.2129 121.344 34.1934 121.436 34.1738L121.445 35.9707C121.25 36.0293 121.022 36.0814 120.762 36.127C120.508 36.1725 120.215 36.1953 119.883 36.1953C119.342 36.1953 118.864 36.1009 118.447 35.9121C118.031 35.7168 117.705 35.401 117.471 34.9648C117.236 34.5286 117.119 33.9492 117.119 33.2266V22.8457ZM127.832 36.1953C127.051 36.1953 126.344 36.0684 125.713 35.8145C125.088 35.554 124.554 35.1927 124.111 34.7305C123.675 34.2682 123.34 33.7246 123.105 33.0996C122.871 32.4746 122.754 31.8008 122.754 31.0781V30.6875C122.754 29.8607 122.874 29.112 123.115 28.4414C123.356 27.7708 123.691 27.1979 124.121 26.7227C124.551 26.2409 125.059 25.873 125.645 25.6191C126.23 25.3652 126.865 25.2383 127.549 25.2383C128.304 25.2383 128.965 25.3652 129.531 25.6191C130.098 25.873 130.566 26.2311 130.938 26.6934C131.315 27.1491 131.595 27.6927 131.777 28.3242C131.966 28.9557 132.061 29.6523 132.061 30.4141V31.4199H123.896V29.7305H129.736V29.5449C129.723 29.1217 129.639 28.7246 129.482 28.3535C129.333 27.9824 129.102 27.6829 128.789 27.4551C128.477 27.2272 128.06 27.1133 127.539 27.1133C127.148 27.1133 126.8 27.1979 126.494 27.3672C126.195 27.5299 125.944 27.7676 125.742 28.0801C125.54 28.3926 125.384 28.7702 125.273 29.2129C125.169 29.6491 125.117 30.1406 125.117 30.6875V31.0781C125.117 31.5404 125.179 31.9701 125.303 32.3672C125.433 32.7578 125.622 33.0996 125.869 33.3926C126.117 33.6855 126.416 33.9167 126.768 34.0859C127.119 34.2487 127.52 34.3301 127.969 34.3301C128.535 34.3301 129.04 34.2161 129.482 33.9883C129.925 33.7604 130.309 33.4382 130.635 33.0215L131.875 34.2227C131.647 34.5547 131.351 34.8737 130.986 35.1797C130.622 35.4792 130.176 35.7233 129.648 35.9121C129.128 36.1009 128.522 36.1953 127.832 36.1953ZM136.26 27.4453V36H133.906V25.4336H136.152L136.26 27.4453ZM139.492 25.3652L139.473 27.5527C139.329 27.5267 139.173 27.5072 139.004 27.4941C138.841 27.4811 138.678 27.4746 138.516 27.4746C138.112 27.4746 137.757 27.5332 137.451 27.6504C137.145 27.7611 136.888 27.9238 136.68 28.1387C136.478 28.347 136.322 28.6009 136.211 28.9004C136.1 29.1999 136.035 29.5352 136.016 29.9062L135.479 29.9453C135.479 29.2812 135.544 28.666 135.674 28.0996C135.804 27.5332 135.999 27.0352 136.26 26.6055C136.527 26.1758 136.859 25.8405 137.256 25.5996C137.66 25.3587 138.125 25.2383 138.652 25.2383C138.796 25.2383 138.949 25.2513 139.111 25.2773C139.281 25.3034 139.408 25.3327 139.492 25.3652Z" fill="#202020"/>
<path d="M39.5101 16.7963L40.6457 15.6609C42.5268 13.7797 45.577 13.7797 47.4581 15.6609C49.3395 17.5422 49.3395 20.5923 47.4581 22.4734L46.3228 23.609M39.5101 16.7963C39.5101 16.7963 39.6522 19.2091 41.781 21.3381C43.9101 23.4669 46.3228 23.609 46.3228 23.609M39.5101 16.7963L29.0717 27.2347C28.3646 27.9418 28.0111 28.2953 27.707 28.6851C27.3486 29.145 27.0411 29.6426 26.7903 30.1689C26.5776 30.6152 26.4193 31.0893 26.1033 32.038L25.0909 35.075L24.7634 36.0574M46.3228 23.609L35.8844 34.0474C35.1773 34.7545 34.8238 35.108 34.434 35.4121C33.9741 35.7705 33.4765 36.078 32.9503 36.3289C32.5039 36.5415 32.0298 36.6998 31.0812 37.0159L28.0442 38.0282L27.0617 38.3558M24.7634 36.0574L24.4358 37.0401C24.2802 37.5068 24.4018 38.0216 24.7497 38.3695C25.0976 38.7174 25.6123 38.8389 26.079 38.6833L27.0617 38.3558M24.7634 36.0574L27.0617 38.3558" stroke="#FCD554" stroke-width="4"/>
<path d="M14.25 29.1631H20.6413" stroke="#D8D8D8" stroke-width="4" stroke-linecap="round"/>
<path d="M14.25 19.0435H30.2283" stroke="#D8D8D8" stroke-width="4" stroke-linecap="round"/>
<path d="M14.25 38.75H17.9783" stroke="#D8D8D8" stroke-width="4" stroke-linecap="round"/>
<path d="M43.3492 4.87035C40.4707 2 35.8373 2 26.5711 2H21.6568C12.3905 2 7.75737 2 4.87867 4.87035C2 7.74072 2 12.3605 2 21.6V31.4C2 40.6394 2 45.2594 4.87867 48.1296C7.75737 51 12.3905 51 21.6568 51H26.5711C35.8373 51 40.4707 51 43.3492 48.1296C45.6664 45.819 46.1183 42.375 46.2065 36.3" stroke="#4BADE5" stroke-width="4" stroke-linecap="round"/>
</svg>
