<svg width="14" height="14" viewBox="0 0 14 14" fill="none" xmlns="http://www.w3.org/2000/svg">
<path d="M10.9371 8.7497C12.3896 8.7497 13.562 9.92216 13.562 11.3746C13.562 12.8271 12.3896 13.9995 10.9371 13.9995C9.48468 13.9995 8.31222 12.8271 8.31222 11.3746C8.31222 11.1646 8.33847 10.9721 8.39097 10.7709L4.5586 8.75845C4.07736 9.29219 3.39489 9.62467 2.62491 9.62467C1.17246 9.62467 0 8.45221 0 6.99976C0 5.54731 1.17246 4.37485 2.62491 4.37485C3.39489 4.37485 4.07736 4.71609 4.5586 5.24107L8.39097 3.22864C8.33847 3.0274 8.31222 2.8349 8.31222 2.62491C8.31222 1.17246 9.48468 0 10.9371 0C12.3896 0 13.562 1.17246 13.562 2.62491C13.562 4.07736 12.3896 5.24982 10.9371 5.24982C10.1672 5.24982 9.48468 4.90858 9.00345 4.3836L5.17108 6.39603C5.22357 6.59728 5.24982 6.78977 5.24982 6.99976C5.24982 7.20976 5.22357 7.40225 5.17108 7.60349L9.00345 9.61592C9.48468 9.08219 10.1672 8.7497 10.9371 8.7497Z" fill="#FCD554"/>
</svg>
