<svg width="16" height="16" viewBox="0 0 16 16" fill="none" xmlns="http://www.w3.org/2000/svg">
<path d="M4.5 1H3.8C2.81991 1 2.32986 1 1.95552 1.19074C1.62623 1.35851 1.35851 1.62623 1.19074 1.95552C1 2.32986 1 2.8199 1 3.8V4.5M1 7.125V8.875M1 11.5V12.2C1 13.1801 1 13.6702 1.19074 14.0445C1.35851 14.3738 1.62623 14.6415 1.95552 14.8092C2.32986 15 2.8199 15 3.8 15H4.5M7.125 15H8.875M11.5 15H12.2C13.1801 15 13.6702 15 14.0445 14.8092C14.3738 14.6415 14.6415 14.3738 14.8092 14.0445C15 13.6702 15 13.1801 15 12.2V11.5M15 8.875V7.125M15 4.5V3.8C15 2.81991 15 2.32986 14.8092 1.95552C14.6415 1.62623 14.3738 1.35851 14.0445 1.19074C13.6702 1 13.1801 1 12.2 1H11.5M8.875 1H7.125" stroke="#B0B0B0" stroke-width="2" stroke-linecap="round" stroke-linejoin="round"/>
</svg>
