<svg width="27" height="27" viewBox="0 0 27 27" fill="none" xmlns="http://www.w3.org/2000/svg">
<rect x="26.773" y="26.9919" width="26.773" height="26.9919" rx="13.3865" transform="rotate(-180 26.773 26.9919)" fill="#2ED6A3" fill-opacity="0.15"/>
<path d="M10.0736 13.2634C10.2213 13.4122 10.4215 13.4958 10.6303 13.4958C10.8391 13.4958 11.0394 13.4122 11.187 13.2634L12.5989 11.8399L12.5989 17.0684C12.5989 17.279 12.6819 17.4809 12.8295 17.6298C12.9772 17.7787 13.1775 17.8623 13.3864 17.8623C13.5952 17.8623 13.7955 17.7787 13.9432 17.6298C14.0908 17.4809 14.1738 17.279 14.1738 17.0684L14.1738 11.8399L15.5857 13.2634C15.7342 13.408 15.9331 13.488 16.1396 13.4862C16.346 13.4844 16.5435 13.4009 16.6895 13.2537C16.8355 13.1065 16.9183 12.9074 16.9201 12.6992C16.9219 12.4911 16.8426 12.2905 16.6991 12.1408L13.9431 9.36224C13.7954 9.21341 13.5952 9.12981 13.3864 9.12981C13.1776 9.12981 12.9773 9.21341 12.8296 9.36224L10.0736 12.1408C9.92596 12.2897 9.84303 12.4916 9.84303 12.7021C9.84303 12.9126 9.92596 13.1145 10.0736 13.2634V13.2634Z" fill="#00A389"/>
</svg>
